<svg width="752" height="678" viewBox="0 0 752 678" fill="none" xmlns="http://www.w3.org/2000/svg">
<rect width="752" height="678" fill="#0A0A0A"/>
<rect x="32" y="32" width="688" height="474" rx="16" fill="#171717"/>
<path d="M76.424 90V75.824H72.264L71.496 73.296H76.424V70.992C76.424 66.8 78.312 65.744 85.128 66.064V68.432C80.328 68.24 79.016 68.848 79.016 71.12V73.296H84.808V75.824H79.016V90H76.424ZM96.2195 90.32C92.2195 90.32 91.0355 88.88 91.0355 83.984V73.296H93.7235V84.048C93.7235 87.024 94.4915 87.92 97.0195 87.92C100.636 87.92 101.724 86.544 101.724 81.936V73.296H104.38V90H101.724V87.504H101.5C100.54 89.648 99.3235 90.32 96.2195 90.32ZM110.287 90V73.296H112.975V75.728H113.199C114.159 73.52 115.311 72.88 118.223 72.88C122.383 72.88 123.631 74.32 123.631 79.248V90H120.975V79.184C120.975 76.208 120.111 75.344 117.391 75.344C113.999 75.344 112.975 76.72 112.975 81.296V90H110.287ZM136.675 90.32C131.075 90.32 129.411 88.336 129.411 81.648C129.411 74.896 131.075 72.88 136.611 72.88C141.251 72.88 142.722 74.096 142.947 78.192H140.291C139.875 75.984 139.075 75.312 136.803 75.312C133.187 75.312 132.099 76.784 132.099 81.712C132.099 86.48 133.187 87.888 136.835 87.888C139.075 87.888 139.843 87.312 140.291 85.36H142.947C142.691 89.2 141.219 90.32 136.675 90.32ZM157.334 90.352C153.174 90.352 152.534 88.784 152.534 84.976V75.664H148.214L148.854 73.296H152.662V69.552L155.158 68.496V73.296H161.014V75.664H155.158V84.848C155.158 86.864 155.574 87.92 158.39 87.92C159.254 87.92 160.31 87.824 161.718 87.632V90C159.926 90.224 158.454 90.352 157.334 90.352ZM172.938 70.352V66.704H176.618V70.352H172.938ZM168.554 89.968V87.632H173.962V75.632H168.874V73.296H176.586V87.632H181.77V89.968H168.554ZM193.693 90.32C188.189 90.32 186.557 88.336 186.557 81.616C186.557 74.864 188.189 72.88 193.693 72.88C199.229 72.88 200.861 74.896 200.861 81.616C200.861 88.304 199.229 90.32 193.693 90.32ZM189.245 81.616C189.245 86.48 190.269 87.92 193.693 87.92C197.149 87.92 198.173 86.48 198.173 81.616C198.173 76.688 197.149 75.248 193.693 75.248C190.269 75.248 189.245 76.688 189.245 81.616ZM206.225 90V73.296H208.913V75.728H209.137C210.097 73.52 211.249 72.88 214.161 72.88C218.321 72.88 219.569 74.32 219.569 79.248V90H216.913V79.184C216.913 76.208 216.049 75.344 213.329 75.344C209.937 75.344 208.913 76.72 208.913 81.296V90H206.225ZM115.375 108.352V104.704H119.055V108.352H115.375ZM110.991 127.968V125.632H116.399V113.632H111.311V111.296H119.023V125.632H124.207V127.968H110.991ZM133.987 128V113.824H129.827L129.059 111.296H133.987V108.992C133.987 104.8 135.875 103.744 142.691 104.064V106.432C137.891 106.24 136.579 106.848 136.579 109.12V111.296H142.371V113.824H136.579V128H133.987ZM151.094 166V149.296H153.654L153.558 153.232H153.814C155.542 149.232 155.894 149.264 158.454 149.2C159.606 149.168 160.79 149.168 161.622 149.232V151.76C159.862 151.696 158.614 151.696 157.782 151.824C155.958 152.144 153.686 154.768 153.686 157.552V166H151.094ZM174.762 166.32C169.13 166.32 167.594 164.432 167.594 157.552C167.594 150.768 169.322 148.912 174.506 148.912C180.17 148.912 181.418 151.024 181.322 158.704H170.282C170.474 162.832 171.434 163.952 174.73 163.952C176.874 163.952 177.642 163.472 178.218 161.68H181.002C180.298 165.328 178.954 166.32 174.762 166.32ZM170.314 156.368H178.762C178.634 152.368 177.706 151.28 174.506 151.28C171.498 151.28 170.602 152.368 170.314 156.368ZM195.709 166.352C191.549 166.352 190.909 164.784 190.909 160.976V151.664H186.589L187.229 149.296H191.037V145.552L193.533 144.496V149.296H199.389V151.664H193.533V160.848C193.533 162.864 193.949 163.92 196.765 163.92C197.629 163.92 198.685 163.824 200.093 163.632V166C198.301 166.224 196.829 166.352 195.709 166.352ZM211.345 166.32C207.345 166.32 206.161 164.88 206.161 159.984V149.296H208.849V160.048C208.849 163.024 209.617 163.92 212.145 163.92C215.761 163.92 216.849 162.544 216.849 157.936V149.296H219.505V166H216.849V163.504H216.625C215.665 165.648 214.449 166.32 211.345 166.32ZM227.844 166V149.296H230.404L230.308 153.232H230.564C232.292 149.232 232.644 149.264 235.204 149.2C236.356 149.168 237.54 149.168 238.372 149.232V151.76C236.612 151.696 235.364 151.696 234.532 151.824C232.708 152.144 230.436 154.768 230.436 157.552V166H227.844ZM244.6 166V149.296H247.288V151.728H247.512C248.472 149.52 249.624 148.88 252.536 148.88C256.696 148.88 257.944 150.32 257.944 155.248V166H255.288V155.184C255.288 152.208 254.424 151.344 251.704 151.344C248.312 151.344 247.288 152.72 247.288 157.296V166H244.6ZM112.719 280V263.296H115.279L115.183 267.232H115.439C117.167 263.232 117.519 263.264 120.079 263.2C121.231 263.168 122.415 263.168 123.247 263.232V265.76C121.487 265.696 120.239 265.696 119.407 265.824C117.583 266.144 115.311 268.768 115.311 271.552V280H112.719ZM136.387 280.32C130.755 280.32 129.219 278.432 129.219 271.552C129.219 264.768 130.947 262.912 136.131 262.912C141.795 262.912 143.043 265.024 142.947 272.704H131.907C132.099 276.832 133.059 277.952 136.355 277.952C138.499 277.952 139.267 277.472 139.843 275.68H142.627C141.923 279.328 140.579 280.32 136.387 280.32ZM131.939 270.368H140.387C140.259 266.368 139.331 265.28 136.131 265.28C133.123 265.28 132.227 266.368 131.939 270.368ZM157.334 280.352C153.174 280.352 152.534 278.784 152.534 274.976V265.664H148.214L148.854 263.296H152.662V259.552L155.158 258.496V263.296H161.014V265.664H155.158V274.848C155.158 276.864 155.574 277.92 158.39 277.92C159.254 277.92 160.31 277.824 161.718 277.632V280C159.926 280.224 158.454 280.352 157.334 280.352ZM172.97 280.32C168.97 280.32 167.786 278.88 167.786 273.984V263.296H170.474V274.048C170.474 277.024 171.242 277.92 173.77 277.92C177.386 277.92 178.474 276.544 178.474 271.936V263.296H181.13V280H178.474V277.504H178.25C177.29 279.648 176.074 280.32 172.97 280.32ZM189.469 280V263.296H192.029L191.933 267.232H192.189C193.917 263.232 194.269 263.264 196.829 263.2C197.981 263.168 199.165 263.168 199.997 263.232V265.76C198.237 265.696 196.989 265.696 196.157 265.824C194.333 266.144 192.061 268.768 192.061 271.552V280H189.469ZM206.225 280V263.296H208.913V265.728H209.137C210.097 263.52 211.249 262.88 214.161 262.88C218.321 262.88 219.569 264.32 219.569 269.248V280H216.913V269.184C216.913 266.208 216.049 265.344 213.329 265.344C209.937 265.344 208.913 266.72 208.913 271.296V280H206.225ZM76.424 394V379.824H72.264L71.496 377.296H76.424V374.992C76.424 370.8 78.312 369.744 85.128 370.064V372.432C80.328 372.24 79.016 372.848 79.016 375.12V377.296H84.808V379.824H79.016V394H76.424ZM96.2195 394.32C92.2195 394.32 91.0355 392.88 91.0355 387.984V377.296H93.7235V388.048C93.7235 391.024 94.4915 391.92 97.0195 391.92C100.636 391.92 101.724 390.544 101.724 385.936V377.296H104.38V394H101.724V391.504H101.5C100.54 393.648 99.3235 394.32 96.2195 394.32ZM110.287 394V377.296H112.975V379.728H113.199C114.159 377.52 115.311 376.88 118.223 376.88C122.383 376.88 123.631 378.32 123.631 383.248V394H120.975V383.184C120.975 380.208 120.111 379.344 117.391 379.344C113.999 379.344 112.975 380.72 112.975 385.296V394H110.287ZM136.675 394.32C131.075 394.32 129.411 392.336 129.411 385.648C129.411 378.896 131.075 376.88 136.611 376.88C141.251 376.88 142.722 378.096 142.947 382.192H140.291C139.875 379.984 139.075 379.312 136.803 379.312C133.187 379.312 132.099 380.784 132.099 385.712C132.099 390.48 133.187 391.888 136.835 391.888C139.075 391.888 139.843 391.312 140.291 389.36H142.947C142.691 393.2 141.219 394.32 136.675 394.32ZM157.334 394.352C153.174 394.352 152.534 392.784 152.534 388.976V379.664H148.214L148.854 377.296H152.662V373.552L155.158 372.496V377.296H161.014V379.664H155.158V388.848C155.158 390.864 155.574 391.92 158.39 391.92C159.254 391.92 160.31 391.824 161.718 391.632V394C159.926 394.224 158.454 394.352 157.334 394.352ZM172.938 374.352V370.704H176.618V374.352H172.938ZM168.554 393.968V391.632H173.962V379.632H168.874V377.296H176.586V391.632H181.77V393.968H168.554ZM193.693 394.32C188.189 394.32 186.557 392.336 186.557 385.616C186.557 378.864 188.189 376.88 193.693 376.88C199.229 376.88 200.861 378.896 200.861 385.616C200.861 392.304 199.229 394.32 193.693 394.32ZM189.245 385.616C189.245 390.48 190.269 391.92 193.693 391.92C197.149 391.92 198.173 390.48 198.173 385.616C198.173 380.688 197.149 379.248 193.693 379.248C190.269 379.248 189.245 380.688 189.245 385.616ZM206.225 394V377.296H208.913V379.728H209.137C210.097 377.52 211.249 376.88 214.161 376.88C218.321 376.88 219.569 378.32 219.569 383.248V394H216.913V383.184C216.913 380.208 216.049 379.344 213.329 379.344C209.937 379.344 208.913 380.72 208.913 385.296V394H206.225ZM110.287 438.88V415.296H112.943V417.024H113.167C114.415 415.36 115.407 414.88 117.647 414.88C122.799 414.88 124.335 416.864 124.335 423.616C124.335 430.336 122.831 432.32 117.711 432.32C115.215 432.32 114.223 431.84 113.199 430.176H112.943V438.88H110.287ZM112.879 423.616C112.879 428.48 113.839 429.92 117.071 429.92C120.559 429.92 121.615 428.48 121.615 423.616C121.615 418.72 120.559 417.28 117.071 417.28C113.839 417.28 112.879 418.72 112.879 423.616ZM131.907 432V415.296H134.467L134.371 419.232H134.627C136.355 415.232 136.707 415.264 139.267 415.2C140.419 415.168 141.603 415.168 142.435 415.232V417.76C140.675 417.696 139.427 417.696 138.595 417.824C136.771 418.144 134.499 420.768 134.499 423.552V432H131.907ZM153.75 412.352V408.704H157.43V412.352H153.75ZM149.366 431.968V429.632H154.774V417.632H149.686V415.296H157.398V429.632H162.582V431.968H149.366ZM167.85 432V415.296H170.538V417.728H170.762C171.722 415.52 172.874 414.88 175.786 414.88C179.946 414.88 181.194 416.32 181.194 421.248V432H178.538V421.184C178.538 418.208 177.674 417.344 174.954 417.344C171.562 417.344 170.538 418.72 170.538 423.296V432H167.85ZM195.709 432.352C191.549 432.352 190.909 430.784 190.909 426.976V417.664H186.589L187.229 415.296H191.037V411.552L193.533 410.496V415.296H199.389V417.664H193.533V426.848C193.533 428.864 193.949 429.92 196.765 429.92C197.629 429.92 198.685 429.824 200.093 429.632V432C198.301 432.224 196.829 432.352 195.709 432.352Z" fill="#FB7185"/>
<path d="M249.112 90V75.824H244.952L244.184 73.296H249.112V70.992C249.112 66.8 251 65.744 257.816 66.064V68.432C253.016 68.24 251.704 68.848 251.704 71.12V73.296H257.496V75.824H251.704V90H249.112ZM268.875 70.352V66.704H272.555V70.352H268.875ZM264.491 89.968V87.632H269.899V75.632H264.811V73.296H272.523V87.632H277.707V89.968H264.491ZM290.367 90.32C288.127 90.32 287.135 89.84 285.887 88.176H285.663V90H283.007L283.039 66.704H285.695L285.663 75.056H285.919C286.943 73.392 287.967 72.912 290.463 72.912C295.551 72.912 297.055 74.896 297.055 81.584C297.055 88.336 295.519 90.32 290.367 90.32ZM285.599 81.584C285.599 86.48 286.559 87.92 289.791 87.92C293.279 87.92 294.335 86.48 294.335 81.584C294.335 76.752 293.279 75.312 289.791 75.312C286.559 75.312 285.599 76.752 285.599 81.584ZM321.35 90V73.296H324.038V75.728H324.262C325.222 73.52 326.374 72.88 329.286 72.88C333.446 72.88 334.694 74.32 334.694 79.248V90H332.038V79.184C332.038 76.208 331.174 75.344 328.454 75.344C325.062 75.344 324.038 76.72 324.038 81.296V90H321.35ZM249.112 280V265.824H244.952L244.184 263.296H249.112V260.992C249.112 256.8 251 255.744 257.816 256.064V258.432C253.016 258.24 251.704 258.848 251.704 261.12V263.296H257.496V265.824H251.704V280H249.112ZM268.875 260.352V256.704H272.555V260.352H268.875ZM264.491 279.968V277.632H269.899V265.632H264.811V263.296H272.523V277.632H277.707V279.968H264.491ZM290.367 280.32C288.127 280.32 287.135 279.84 285.887 278.176H285.663V280H283.007L283.039 256.704H285.695L285.663 265.056H285.919C286.943 263.392 287.967 262.912 290.463 262.912C295.551 262.912 297.055 264.896 297.055 271.584C297.055 278.336 295.519 280.32 290.367 280.32ZM285.599 271.584C285.599 276.48 286.559 277.92 289.791 277.92C293.279 277.92 294.335 276.48 294.335 271.584C294.335 266.752 293.279 265.312 289.791 265.312C286.559 265.312 285.599 266.752 285.599 271.584ZM498.549 280V265.824H494.389L493.621 263.296H498.549V260.992C498.549 256.8 500.437 255.744 507.253 256.064V258.432C502.453 258.24 501.141 258.848 501.141 261.12V263.296H506.933V265.824H501.141V280H498.549ZM518.312 260.352V256.704H521.993V260.352H518.312ZM513.929 279.968V277.632H519.337V265.632H514.249V263.296H521.961V277.632H527.145V279.968H513.929ZM539.804 280.32C537.564 280.32 536.572 279.84 535.324 278.176H535.1V280H532.444L532.476 256.704H535.132L535.1 265.056H535.356C536.38 263.392 537.404 262.912 539.9 262.912C544.988 262.912 546.492 264.896 546.492 271.584C546.492 278.336 544.956 280.32 539.804 280.32ZM535.036 271.584C535.036 276.48 535.996 277.92 539.228 277.92C542.716 277.92 543.772 276.48 543.772 271.584C543.772 266.752 542.716 265.312 539.228 265.312C535.996 265.312 535.036 266.752 535.036 271.584ZM243.16 394V377.296H245.56V379.44H245.784C246.52 377.488 247.288 376.912 248.92 376.912C250.808 376.912 251.768 377.552 252.248 379.44H252.408C253.176 377.424 254.04 376.912 255.768 376.912C258.552 376.912 259.384 378.416 259.384 383.184V394H256.856V383.792C256.856 380.432 256.408 379.344 254.744 379.344C253.048 379.344 252.536 380.464 252.536 384.272V394H250.04L250.104 383.824C250.135 380.368 249.432 379.344 247.864 379.344C246.168 379.344 245.656 380.56 245.656 384.464V394H243.16ZM268.843 394.32C264.843 394.32 263.659 393.2 263.659 389.36C263.659 384.816 265.355 383.472 271.083 383.472H274.091V382.672C274.091 380.016 273.227 379.216 270.283 379.216C267.691 379.216 266.923 379.76 266.859 381.616H264.171C264.171 377.968 265.579 376.88 270.283 376.88C275.179 376.88 276.619 378.192 276.619 382.672V394H274.187V391.856H273.963C272.875 393.744 271.691 394.32 268.843 394.32ZM266.347 389.072C266.347 391.28 267.083 391.92 269.515 391.92C273.003 391.92 274.059 390.512 274.059 385.744L270.443 385.776C267.275 385.808 266.347 386.576 266.347 389.072ZM288.062 374.352V370.704H291.743V374.352H288.062ZM283.679 393.968V391.632H289.087V379.632H283.999V377.296H291.711V391.632H296.895V393.968H283.679ZM302.162 394V377.296H304.85V379.728H305.074C306.034 377.52 307.186 376.88 310.098 376.88C314.258 376.88 315.506 378.32 315.506 383.248V394H312.85V383.184C312.85 380.208 311.986 379.344 309.266 379.344C305.874 379.344 304.85 380.72 304.85 385.296V394H302.162ZM229.924 432V417.824H225.764L224.996 415.296H229.924V412.992C229.924 408.8 231.812 407.744 238.628 408.064V410.432C233.828 410.24 232.516 410.848 232.516 413.12V415.296H238.308V417.824H232.516V432H229.924ZM249.688 412.352V408.704H253.368V412.352H249.688ZM245.304 431.968V429.632H250.712V417.632H245.624V415.296H253.336V429.632H258.52V431.968H245.304ZM271.179 432.32C268.939 432.32 267.947 431.84 266.699 430.176H266.475V432H263.819L263.851 408.704H266.507L266.475 417.056H266.731C267.755 415.392 268.779 414.912 271.275 414.912C276.363 414.912 277.867 416.896 277.867 423.584C277.867 430.336 276.331 432.32 271.179 432.32ZM266.411 423.584C266.411 428.48 267.371 429.92 270.603 429.92C274.091 429.92 275.147 428.48 275.147 423.584C275.147 418.752 274.091 417.312 270.603 417.312C267.371 417.312 266.411 418.752 266.411 423.584Z" fill="#FAFAFA"/>
<path d="M314.418 93.648C309.874 93.36 308.146 91.728 306.898 86.512C306.322 84.112 306.162 82.512 306.162 79.536C306.162 76.56 306.322 74.96 306.898 72.56C308.178 67.344 309.874 65.712 314.418 65.424L314.386 68.176C311.218 68.464 310.098 69.648 309.394 73.328C308.946 75.76 308.818 77.2 308.818 79.536C308.818 81.872 308.946 83.312 309.394 85.744C310.13 89.424 311.25 90.608 314.386 90.896L314.418 93.648ZM437.627 90.896C440.763 90.608 441.883 89.424 442.619 85.744C443.067 83.312 443.195 81.872 443.195 79.536C443.195 77.2 443.067 75.76 442.619 73.328C441.915 69.648 440.795 68.464 437.627 68.176L437.595 65.424C442.139 65.712 443.835 67.344 445.115 72.56C445.691 74.96 445.851 76.56 445.851 79.536C445.851 82.512 445.691 84.112 445.115 86.512C443.867 91.728 442.139 93.36 437.595 93.648L437.627 90.896ZM476.066 81.744V79.184H487.01V81.744H476.066ZM493.525 88.752V85.744L505.397 80.304V80.048L493.525 74.608V71.6L507.925 78.608V81.744L493.525 88.752ZM640.798 93.648C632.734 93.648 632.766 93.296 634.302 85.328C634.878 82.352 634.91 82.128 630.654 81.264V77.808C634.91 77.008 634.878 76.784 634.302 73.744C632.766 65.776 632.734 65.424 640.798 65.424V67.92C635.294 67.92 635.614 67.92 636.542 72.432C637.726 78.224 637.054 78.576 633.182 79.184V79.888C637.054 80.496 637.726 80.848 636.542 86.64C635.614 91.152 635.294 91.152 640.798 91.152V93.648ZM167.85 128V111.296H170.538V113.728H170.762C171.722 111.52 172.874 110.88 175.786 110.88C179.946 110.88 181.194 112.32 181.194 117.248V128H178.538V117.184C178.538 114.208 177.674 113.344 174.954 113.344C171.562 113.344 170.538 114.72 170.538 119.296V128H167.85ZM205.457 116.352V113.888H220.369V116.352H205.457ZM205.457 122.752V120.288H220.369V122.752H205.457ZM224.644 116.352V113.888H239.556V116.352H224.644ZM224.644 122.752V120.288H239.556V122.752H224.644ZM307.538 131.136V103.232H310.162V131.136H307.538ZM326.726 131.136V103.232H329.35V131.136H326.726ZM359.725 128V111.296H362.413V113.728H362.637C363.597 111.52 364.749 110.88 367.661 110.88C371.821 110.88 373.069 112.32 373.069 117.248V128H370.413V117.184C370.413 114.208 369.549 113.344 366.829 113.344C363.437 113.344 362.413 114.72 362.413 119.296V128H359.725ZM397.332 116.352V113.888H412.244V116.352H397.332ZM397.332 122.752V120.288H412.244V122.752H397.332ZM416.519 116.352V113.888H431.431V116.352H416.519ZM416.519 122.752V120.288H431.431V122.752H416.519ZM506.485 131.648C498.421 131.648 498.453 131.296 499.989 123.328C500.565 120.352 500.597 120.128 496.341 119.264V115.808C500.597 115.008 500.565 114.784 499.989 111.744C498.453 103.776 498.421 103.424 506.485 103.424V105.92C500.981 105.92 501.301 105.92 502.229 110.432C503.413 116.224 502.741 116.576 498.869 117.184V117.888C502.741 118.496 503.413 118.848 502.229 124.64C501.301 129.152 500.981 129.152 506.485 129.152V131.648ZM282.975 166V149.296H285.663V151.728H285.887C286.847 149.52 287.999 148.88 290.911 148.88C295.071 148.88 296.319 150.32 296.319 155.248V166H293.663V155.184C293.663 152.208 292.799 151.344 290.079 151.344C286.687 151.344 285.663 152.72 285.663 157.296V166H282.975ZM111.215 205.152C116.719 205.152 116.399 205.152 115.471 200.64C114.287 194.848 114.959 194.496 118.831 193.888V193.184C114.959 192.576 114.287 192.224 115.471 186.432C116.399 181.92 116.719 181.92 111.215 181.92V179.424C119.279 179.424 119.247 179.776 117.711 187.744C117.135 190.784 117.103 191.008 121.359 191.808V195.264C117.103 196.128 117.135 196.352 117.711 199.328C119.247 207.296 119.279 207.648 111.215 207.648V205.152ZM314.418 283.648C309.874 283.36 308.146 281.728 306.898 276.512C306.322 274.112 306.162 272.512 306.162 269.536C306.162 266.56 306.322 264.96 306.898 262.56C308.178 257.344 309.874 255.712 314.418 255.424L314.386 258.176C311.218 258.464 310.098 259.648 309.394 263.328C308.946 265.76 308.818 267.2 308.818 269.536C308.818 271.872 308.946 273.312 309.394 275.744C310.13 279.424 311.25 280.608 314.386 280.896L314.418 283.648ZM321.35 280V263.296H324.038V265.728H324.262C325.222 263.52 326.374 262.88 329.286 262.88C333.446 262.88 334.694 264.32 334.694 269.248V280H332.038V269.184C332.038 266.208 331.174 265.344 328.454 265.344C325.062 265.344 324.038 266.72 324.038 271.296V280H321.35ZM360.941 271.744V269.184H371.885V271.744H360.941ZM418.439 280.896C421.575 280.608 422.695 279.424 423.431 275.744C423.879 273.312 424.007 271.872 424.007 269.536C424.007 267.2 423.879 265.76 423.431 263.328C422.727 259.648 421.607 258.464 418.439 258.176L418.407 255.424C422.951 255.712 424.647 257.344 425.927 262.56C426.503 264.96 426.663 266.56 426.663 269.536C426.663 272.512 426.503 274.112 425.927 276.512C424.679 281.728 422.951 283.36 418.407 283.648L418.439 280.896ZM461.07 278.464V271.552H454.606V269.12H461.07V262.4H463.63V269.12H470.094V271.552H463.63V278.464H461.07ZM563.856 283.648C559.312 283.36 557.584 281.728 556.336 276.512C555.76 274.112 555.6 272.512 555.6 269.536C555.6 266.56 555.76 264.96 556.336 262.56C557.616 257.344 559.312 255.712 563.856 255.424L563.824 258.176C560.656 258.464 559.536 259.648 558.832 263.328C558.384 265.76 558.256 267.2 558.256 269.536C558.256 271.872 558.384 273.312 558.832 275.744C559.568 279.424 560.688 280.608 563.824 280.896L563.856 283.648ZM570.787 280V263.296H573.475V265.728H573.699C574.659 263.52 575.811 262.88 578.723 262.88C582.883 262.88 584.131 264.32 584.131 269.248V280H581.475V269.184C581.475 266.208 580.611 265.344 577.891 265.344C574.499 265.344 573.475 266.72 573.475 271.296V280H570.787ZM610.378 271.744V269.184H621.322V271.744H610.378ZM667.877 280.896C671.013 280.608 672.133 279.424 672.869 275.744C673.317 273.312 673.445 271.872 673.445 269.536C673.445 267.2 673.317 265.76 672.869 263.328C672.165 259.648 671.045 258.464 667.877 258.176L667.845 255.424C672.389 255.712 674.085 257.344 675.365 262.56C675.941 264.96 676.101 266.56 676.101 269.536C676.101 272.512 675.941 274.112 675.365 276.512C674.117 281.728 672.389 283.36 667.845 283.648L667.877 280.896ZM72.84 319.152C78.344 319.152 78.024 319.152 77.096 314.64C75.912 308.848 76.584 308.496 80.456 307.888V307.184C76.584 306.576 75.912 306.224 77.096 300.432C78.024 295.92 78.344 295.92 72.84 295.92V293.424C80.904 293.424 80.872 293.776 79.336 301.744C78.76 304.784 78.728 305.008 82.984 305.808V309.264C78.728 310.128 78.76 310.352 79.336 313.328C80.872 321.296 80.904 321.648 72.84 321.648V319.152ZM333.606 397.648C329.062 397.36 327.334 395.728 326.086 390.512C325.51 388.112 325.35 386.512 325.35 383.536C325.35 380.56 325.51 378.96 326.086 376.56C327.366 371.344 329.062 369.712 333.606 369.424L333.574 372.176C330.406 372.464 329.286 373.648 328.582 377.328C328.134 379.76 328.006 381.2 328.006 383.536C328.006 385.872 328.134 387.312 328.582 389.744C329.318 393.424 330.438 394.608 333.574 394.896L333.606 397.648ZM341.689 394.896C344.825 394.608 345.945 393.424 346.681 389.744C347.129 387.312 347.257 385.872 347.257 383.536C347.257 381.2 347.129 379.76 346.681 377.328C345.977 373.648 344.857 372.464 341.689 372.176L341.657 369.424C346.201 369.712 347.897 371.344 349.177 376.56C349.753 378.96 349.913 380.56 349.913 383.536C349.913 386.512 349.753 388.112 349.177 390.512C347.929 395.728 346.201 397.36 341.657 397.648L341.689 394.896ZM391.36 397.648C383.296 397.648 383.328 397.296 384.864 389.328C385.44 386.352 385.472 386.128 381.216 385.264V381.808C385.472 381.008 385.44 380.784 384.864 377.744C383.328 369.776 383.296 369.424 391.36 369.424V371.92C385.856 371.92 386.176 371.92 387.104 376.432C388.288 382.224 387.616 382.576 383.744 383.184V383.888C387.616 384.496 388.288 384.848 387.104 390.64C386.176 395.152 385.856 395.152 391.36 395.152V397.648ZM295.231 435.648C290.687 435.36 288.959 433.728 287.711 428.512C287.135 426.112 286.975 424.512 286.975 421.536C286.975 418.56 287.135 416.96 287.711 414.56C288.991 409.344 290.687 407.712 295.231 407.424L295.199 410.176C292.031 410.464 290.911 411.648 290.207 415.328C289.759 417.76 289.631 419.2 289.631 421.536C289.631 423.872 289.759 425.312 290.207 427.744C290.943 431.424 292.063 432.608 295.199 432.896L295.231 435.648ZM307.442 432.224C305.202 432.224 303.794 431.936 301.938 431.136V428.288C304.274 429.408 305.682 429.792 307.666 429.792C311.346 429.792 312.722 428.512 312.722 424.96C312.722 422.048 311.794 420.992 309.138 420.64C307.666 420.448 305.97 420.512 302.546 420.96L303.41 410.24H314.482V412.608L305.746 412.672L305.33 418.304C306.45 417.984 307.538 417.92 309.17 418.08C313.778 418.56 315.41 420.256 315.41 424.96C315.41 430.304 313.298 432.224 307.442 432.224ZM322.502 432.896C325.638 432.608 326.758 431.424 327.494 427.744C327.942 425.312 328.07 423.872 328.07 421.536C328.07 419.2 327.942 417.76 327.494 415.328C326.79 411.648 325.67 410.464 322.502 410.176L322.47 407.424C327.014 407.712 328.71 409.344 329.99 414.56C330.566 416.96 330.726 418.56 330.726 421.536C330.726 424.512 330.566 426.112 329.99 428.512C328.742 433.728 327.014 435.36 322.47 435.648L322.502 432.896ZM72.84 471.152C78.344 471.152 78.024 471.152 77.096 466.64C75.912 460.848 76.584 460.496 80.456 459.888V459.184C76.584 458.576 75.912 458.224 77.096 452.432C78.024 447.92 78.344 447.92 72.84 447.92V445.424C80.904 445.424 80.872 445.776 79.336 453.744C78.76 456.784 78.728 457.008 82.984 457.808V461.264C78.728 462.128 78.76 462.352 79.336 465.328C80.872 473.296 80.904 473.648 72.84 473.648V471.152Z" fill="#D4D4D4"/>
<path d="M364.845 90.32C360.845 90.32 359.661 88.88 359.661 83.984V73.296H362.349V84.048C362.349 87.024 363.117 87.92 365.645 87.92C369.261 87.92 370.349 86.544 370.349 81.936V73.296H373.005V90H370.349V87.504H370.125C369.165 89.648 367.949 90.32 364.845 90.32ZM384 70.352V66.704H387.68V70.352H384ZM379.616 89.968V87.632H385.024V75.632H379.936V73.296H387.648V87.632H392.832V89.968H379.616ZM398.1 90V73.296H400.788V75.728H401.012C401.972 73.52 403.124 72.88 406.036 72.88C410.196 72.88 411.444 74.32 411.444 79.248V90H408.788V79.184C408.788 76.208 407.924 75.344 405.204 75.344C401.812 75.344 400.788 76.72 400.788 81.296V90H398.1ZM425.959 90.352C421.799 90.352 421.159 88.784 421.159 84.976V75.664H416.839L417.479 73.296H421.287V69.552L423.783 68.496V73.296H429.639V75.664H423.783V84.848C423.783 86.864 424.199 87.92 427.015 87.92C427.879 87.92 428.935 87.824 430.343 87.632V90C428.551 90.224 427.079 90.352 425.959 90.352ZM537.532 90.32C533.532 90.32 532.348 88.88 532.348 83.984V73.296H535.036V84.048C535.036 87.024 535.804 87.92 538.332 87.92C541.948 87.92 543.036 86.544 543.036 81.936V73.296H545.692V90H543.036V87.504H542.812C541.852 89.648 540.636 90.32 537.532 90.32ZM556.688 70.352V66.704H560.368V70.352H556.688ZM552.304 89.968V87.632H557.712V75.632H552.624V73.296H560.336V87.632H565.52V89.968H552.304ZM570.787 90V73.296H573.475V75.728H573.699C574.659 73.52 575.811 72.88 578.723 72.88C582.883 72.88 584.131 74.32 584.131 79.248V90H581.475V79.184C581.475 76.208 580.611 75.344 577.891 75.344C574.499 75.344 573.475 76.72 573.475 81.296V90H570.787ZM598.647 90.352C594.487 90.352 593.847 88.784 593.847 84.976V75.664H589.527L590.167 73.296H593.975V69.552L596.47 68.496V73.296H602.327V75.664H596.47V84.848C596.47 86.864 596.887 87.92 599.703 87.92C600.567 87.92 601.623 87.824 603.031 87.632V90C601.239 90.224 599.767 90.352 598.647 90.352Z" fill="#7DD3FC"/>
<path d="M270.411 119.648C269.291 119.648 269.099 119.52 268.971 118.88C268.843 118.336 268.811 117.984 268.811 117.248C268.811 116.192 268.875 116.096 268.971 115.648C269.131 114.944 269.259 114.848 270.411 114.848C271.531 114.848 271.723 114.976 271.851 115.616C271.979 116.16 272.011 116.512 272.011 117.248C272.011 118.304 271.947 118.4 271.851 118.848C271.691 119.552 271.563 119.648 270.411 119.648ZM263.147 117.248C263.147 113.888 263.467 112.192 263.787 110.848C264.779 106.656 265.867 106.048 270.475 106.048C275.083 106.048 276.171 106.656 277.163 110.848C277.483 112.192 277.803 113.888 277.803 117.248C277.803 120.608 277.515 122.304 277.195 123.648C276.203 127.84 275.083 128.448 270.475 128.448C265.867 128.448 264.747 127.84 263.755 123.648C263.435 122.304 263.147 120.608 263.147 117.248ZM265.867 117.248C265.867 120.416 266.187 121.888 266.347 122.816C266.763 125.152 267.371 126.08 270.475 126.08C273.579 126.08 274.187 125.152 274.603 122.816C274.763 121.888 275.083 120.416 275.083 117.248C275.083 114.08 274.763 112.608 274.603 111.68C274.187 109.344 273.579 108.416 270.475 108.416C267.371 108.416 266.763 109.344 266.347 111.68C266.187 112.608 265.867 114.08 265.867 117.248ZM463.022 128V112.384L463.214 109.12H463.022L460.846 110.944L456.142 113.92V110.912L462.638 106.24H465.71V128H463.022ZM405.46 280V264.384L405.652 261.12H405.46L403.284 262.944L398.58 265.92V262.912L405.076 258.24H408.148V280H405.46ZM647.409 275.968C652.913 271.296 655.089 269.28 656.881 267.04C657.809 265.92 658.097 265.216 658.097 263.968C658.097 261.184 657.169 260.352 654.033 260.352C651.025 260.352 650.065 261.056 649.809 263.424H646.961C647.313 259.168 648.913 257.92 654.001 257.92C659.249 257.92 660.817 259.328 660.817 264.032C660.817 266.016 660.337 267.104 658.673 268.896C655.601 272.16 653.681 274.016 650.257 276.992V277.44H661.297V280H647.409V275.968Z" fill="#818CF8"/>
<path d="M40.608 602.976V599.616C35.84 599.456 34.4 598.08 34.368 594.048H36.768C37.088 596.288 37.984 597.152 40.608 597.344V589.6C35.936 588.16 34.528 586.816 34.528 583.808C34.528 580.032 35.936 578.752 40.608 578.592V575.584H42.688V578.624C46.88 578.784 48.224 580 48.448 583.488H45.92C45.696 581.728 44.928 581.024 42.688 580.864V587.776C42.752 587.808 42.816 587.808 42.88 587.84C47.456 589.312 48.832 590.752 48.832 594.176C48.832 598.112 47.392 599.488 42.688 599.616V602.976H40.608ZM36.896 583.936C36.896 585.184 37.792 586.016 40.608 587.072V580.832C37.76 580.96 36.896 581.728 36.896 583.936ZM42.688 597.376C45.568 597.248 46.464 596.416 46.464 594.208C46.464 592.384 45.536 591.328 42.688 590.272V597.376ZM40.608 640.976V637.616C35.84 637.456 34.4 636.08 34.368 632.048H36.768C37.088 634.288 37.984 635.152 40.608 635.344V627.6C35.936 626.16 34.528 624.816 34.528 621.808C34.528 618.032 35.936 616.752 40.608 616.592V613.584H42.688V616.624C46.88 616.784 48.224 618 48.448 621.488H45.92C45.696 619.728 44.928 619.024 42.688 618.864V625.776C42.752 625.808 42.816 625.808 42.88 625.84C47.456 627.312 48.832 628.752 48.832 632.176C48.832 636.112 47.392 637.488 42.688 637.616V640.976H40.608ZM36.896 621.936C36.896 623.184 37.792 624.016 40.608 625.072V618.832C37.76 618.96 36.896 619.728 36.896 621.936ZM42.688 635.376C45.568 635.248 46.464 634.416 46.464 632.208C46.464 630.384 45.536 629.328 42.688 628.272V635.376Z" fill="#A3A3A3"/>
<path d="M73.287 600V583.296H75.975V585.728H76.199C77.159 583.52 78.311 582.88 81.223 582.88C85.383 582.88 86.631 584.32 86.631 589.248V600H83.975V589.184C83.975 586.208 83.111 585.344 80.391 585.344C76.999 585.344 75.975 586.72 75.975 591.296V600H73.287ZM97.5625 580.352V576.704H101.243V580.352H97.5625ZM93.1785 599.968V597.632H98.5865V585.632H93.4985V583.296H101.211V597.632H106.395V599.968H93.1785ZM118.126 606.88C113.262 606.88 111.758 605.76 111.502 601.984H114.19C114.222 604 115.15 604.608 118.158 604.608C121.294 604.608 122.254 603.584 122.286 600.064V597.568H122.062C121.422 599.488 120.462 600.096 117.71 600.096C112.462 600.096 110.894 598.144 110.894 591.616C110.894 584.864 112.462 582.88 117.742 582.88C120.366 582.88 121.454 583.392 122.126 585.376H122.382V583.296H124.91V600.416C124.878 605.408 123.31 606.88 118.126 606.88ZM113.582 591.616C113.582 596.32 114.574 597.728 117.934 597.728C121.294 597.728 122.286 596.32 122.286 591.616C122.286 586.688 121.294 585.248 117.934 585.248C114.574 585.248 113.582 586.688 113.582 591.616ZM130.85 600V576.704H133.538V585.76H133.762C134.722 583.552 135.842 582.912 138.754 582.912C142.946 582.912 144.194 584.352 144.194 589.28V600H141.538V589.216C141.538 586.208 140.674 585.312 137.922 585.312C134.562 585.312 133.538 586.688 133.538 591.328V600H130.85ZM158.709 600.352C154.549 600.352 153.909 598.784 153.909 594.976V585.664H149.589L150.229 583.296H154.037V579.552L156.533 578.496V583.296H162.389V585.664H156.533V594.848C156.533 596.864 156.949 597.92 159.765 597.92C160.629 597.92 161.685 597.824 163.093 597.632V600C161.301 600.224 159.829 600.352 158.709 600.352ZM169.225 600V576.704H171.913V585.76H172.137C173.097 583.552 174.217 582.912 177.129 582.912C181.321 582.912 182.569 584.352 182.569 589.28V600H179.913V589.216C179.913 586.208 179.049 585.312 176.297 585.312C172.937 585.312 171.913 586.688 171.913 591.328V600H169.225ZM193.468 600.32C189.468 600.32 188.284 599.2 188.284 595.36C188.284 590.816 189.98 589.472 195.708 589.472H198.716V588.672C198.716 586.016 197.852 585.216 194.908 585.216C192.316 585.216 191.548 585.76 191.484 587.616H188.796C188.796 583.968 190.204 582.88 194.908 582.88C199.804 582.88 201.244 584.192 201.244 588.672V600H198.812V597.856H198.588C197.5 599.744 196.316 600.32 193.468 600.32ZM190.972 595.072C190.972 597.28 191.708 597.92 194.14 597.92C197.628 597.92 198.684 596.512 198.684 591.744L195.068 591.776C191.9 591.808 190.972 592.576 190.972 595.072ZM219.984 600H217.072L214.384 586.272H214.224L211.504 600H208.592L205.008 583.264H207.824L209.968 596.8H210.256L212.911 583.296H215.696L218.32 596.8H218.608L220.752 583.264H223.568L219.984 600ZM238.275 600L230.467 591.072V600H227.843V576.704H230.467V590.592L237.347 583.296H240.803L233.667 590.752L241.859 600H238.275Z" fill="#7DD3FC"/>
<path d="M272.362 600.32C266.762 600.32 265.098 598.336 265.098 591.648C265.098 584.896 266.762 582.88 272.298 582.88C276.938 582.88 278.41 584.096 278.634 588.192H275.978C275.562 585.984 274.762 585.312 272.49 585.312C268.874 585.312 267.786 586.784 267.786 591.712C267.786 596.48 268.874 597.888 272.522 597.888C274.762 597.888 275.53 597.312 275.978 595.36H278.634C278.378 599.2 276.906 600.32 272.362 600.32ZM291.006 600.32C285.502 600.32 283.87 598.336 283.87 591.616C283.87 584.864 285.502 582.88 291.006 582.88C296.542 582.88 298.174 584.896 298.174 591.616C298.174 598.304 296.542 600.32 291.006 600.32ZM286.558 591.616C286.558 596.48 287.582 597.92 291.006 597.92C294.462 597.92 295.486 596.48 295.486 591.616C295.486 586.688 294.462 585.248 291.006 585.248C287.582 585.248 286.558 586.688 286.558 591.616ZM302.097 600V583.296H304.497V585.44H304.721C305.457 583.488 306.225 582.912 307.857 582.912C309.745 582.912 310.705 583.552 311.185 585.44H311.345C312.113 583.424 312.977 582.912 314.705 582.912C317.489 582.912 318.321 584.416 318.321 589.184V600H315.793V589.792C315.793 586.432 315.345 585.344 313.681 585.344C311.985 585.344 311.473 586.464 311.473 590.272V600H308.977L309.041 589.824C309.073 586.368 308.369 585.344 306.801 585.344C305.105 585.344 304.593 586.56 304.593 590.464V600H302.097ZM322.725 606.88V583.296H325.381V585.024H325.605C326.853 583.36 327.845 582.88 330.085 582.88C335.237 582.88 336.773 584.864 336.773 591.616C336.773 598.336 335.269 600.32 330.149 600.32C327.653 600.32 326.661 599.84 325.637 598.176H325.381V606.88H322.725ZM325.317 591.616C325.317 596.48 326.277 597.92 329.509 597.92C332.997 597.92 334.053 596.48 334.053 591.616C334.053 586.72 332.997 585.28 329.509 585.28C326.277 585.28 325.317 586.72 325.317 591.616ZM347 580.352V576.704H350.68V580.352H347ZM342.616 599.968V597.632H348.024V585.632H342.936V583.296H350.648V597.632H355.832V599.968H342.616ZM361.068 600V597.632H366.764V579.104H361.388V576.704H369.356V597.632H374.668V600H361.068ZM387.199 600.32C381.567 600.32 380.031 598.432 380.031 591.552C380.031 584.768 381.759 582.912 386.943 582.912C392.607 582.912 393.855 585.024 393.759 592.704H382.719C382.911 596.832 383.871 597.952 387.167 597.952C389.311 597.952 390.079 597.472 390.655 595.68H393.439C392.735 599.328 391.391 600.32 387.199 600.32ZM382.751 590.368H391.199C391.071 586.368 390.143 585.28 386.943 585.28C383.935 585.28 383.039 586.368 382.751 590.368Z" fill="#818CF8"/>
<path d="M422.918 600V595.104H427.782V600H422.918ZM437.594 603.648L448.73 575.424H451.45L440.282 603.648H437.594ZM461.549 600V585.824H457.389L456.621 583.296H461.549V580.992C461.549 576.8 463.437 575.744 470.253 576.064V578.432C465.453 578.24 464.141 578.848 464.141 581.12V583.296H469.933V585.824H464.141V600H461.549ZM481.312 580.352V576.704H484.993V580.352H481.312ZM476.929 599.968V597.632H482.337V585.632H477.249V583.296H484.961V597.632H490.145V599.968H476.929ZM502.804 600.32C500.564 600.32 499.572 599.84 498.324 598.176H498.1V600H495.444L495.476 576.704H498.132L498.1 585.056H498.356C499.38 583.392 500.404 582.912 502.9 582.912C507.988 582.912 509.492 584.896 509.492 591.584C509.492 598.336 507.956 600.32 502.804 600.32ZM498.036 591.584C498.036 596.48 498.996 597.92 502.228 597.92C505.716 597.92 506.772 596.48 506.772 591.584C506.772 586.752 505.716 585.312 502.228 585.312C498.996 585.312 498.036 586.752 498.036 591.584ZM518.856 600V595.104H523.72V600H518.856ZM533.787 600V576.704H536.475V585.76H536.699C537.659 583.552 538.779 582.912 541.691 582.912C545.883 582.912 547.131 584.352 547.131 589.28V600H544.475V589.216C544.475 586.208 543.611 585.312 540.859 585.312C537.499 585.312 536.475 586.688 536.475 591.328V600H533.787ZM558.031 600.32C554.031 600.32 552.847 599.2 552.847 595.36C552.847 590.816 554.543 589.472 560.271 589.472H563.279V588.672C563.279 586.016 562.415 585.216 559.47 585.216C556.879 585.216 556.111 585.76 556.047 587.616H553.359C553.359 583.968 554.766 582.88 559.47 582.88C564.367 582.88 565.807 584.192 565.807 588.672V600H563.375V597.856H563.151C562.063 599.744 560.879 600.32 558.031 600.32ZM555.535 595.072C555.535 597.28 556.271 597.92 558.703 597.92C562.191 597.92 563.247 596.512 563.247 591.744L559.631 591.776C556.463 591.808 555.535 592.576 555.535 595.072ZM584.546 600H581.634L578.946 586.272H578.786L576.066 600H573.154L569.57 583.264H572.386L574.53 596.8H574.818L577.474 583.296H580.258L582.882 596.8H583.17L585.314 583.264H588.13L584.546 600ZM602.838 600L595.03 591.072V600H592.406V576.704H595.03V590.592L601.91 583.296H605.366L598.23 590.752L606.422 600H602.838ZM77.543 638V633.104H82.407V638H77.543ZM92.2185 641.648L103.355 613.424H106.075L94.9065 641.648H92.2185ZM116.174 638V623.824H112.014L111.246 621.296H116.174V618.992C116.174 614.8 118.062 613.744 124.878 614.064V616.432C120.078 616.24 118.766 616.848 118.766 619.12V621.296H124.558V623.824H118.766V638H116.174ZM135.938 618.352V614.704H139.618V618.352H135.938ZM131.554 637.968V635.632H136.962V623.632H131.874V621.296H139.586V635.632H144.77V637.968H131.554ZM157.429 638.32C155.189 638.32 154.197 637.84 152.949 636.176H152.725V638H150.069L150.101 614.704H152.757L152.725 623.056H152.981C154.005 621.392 155.029 620.912 157.525 620.912C162.613 620.912 164.117 622.896 164.117 629.584C164.117 636.336 162.581 638.32 157.429 638.32ZM152.661 629.584C152.661 634.48 153.621 635.92 156.853 635.92C160.341 635.92 161.397 634.48 161.397 629.584C161.397 624.752 160.341 623.312 156.853 623.312C153.621 623.312 152.661 624.752 152.661 629.584Z" fill="#F5F5F5"/>
</svg>
